# xmcd CD database file
#
# Track frame offsets:
#	150
#	18215
#	43401
#	60533
#	77612
#	95561
#	112164
#	126687
#	148074
#	158687
#	178088
#	198106
#
# Disc length: 2862 seconds
#
# Revision: 2
# Processed by: cddbd v1.4PL0 Copyright (c) Steve Scherf et al.
# Submitted via: CDex 1.50Beta6
#
DISCID=a90b2c0c
DTITLE=Donna Salter - Love Is Here
DYEAR=2002
DGENRE=Jazz
TTITLE0=Love Is Here To Stay
TTITLE1=It Might As Well Be Spring
TTITLE2=The Very Thought Of You
TTITLE3=Sentimental Journey
TTITLE4=Watch What Happens
TTITLE5=I Remember You
TTITLE6=Easy To Love
TTITLE7=Quiet Night Of Quiet Stars
TTITLE8=My Romance
TTITLE9=Lullaby Of Birdland
TTITLE10=The Nearness Of You
TTITLE11=Time After Time
EXTD=YEAR: 2002
EXTT0=
EXTT1=
EXTT2=
EXTT3=
EXTT4=
EXTT5=
EXTT6=
EXTT7=
EXTT8=
EXTT9=
EXTT10=
EXTT11=
PLAYORDER=
